<svg xmlns="http://www.w3.org/2000/svg" viewBox="0 0 120 120">
  <circle cx="60" cy="60" r="56" fill="#e64524"/>
  <g fill="#f5efe1">
    <circle cx="42" cy="33" r="11"/><circle cx="60" cy="26" r="14"/><circle cx="78" cy="33" r="11"/>
    <rect x="44" y="34" width="32" height="14" rx="5"/>
  </g>
  <g fill="#7dc242">
    <circle cx="31" cy="72" r="15"/><circle cx="41" cy="87" r="14"/><circle cx="60" cy="93" r="15"/>
    <circle cx="79" cy="87" r="14"/><circle cx="89" cy="72" r="15"/><circle cx="33" cy="58" r="12"/><circle cx="87" cy="58" r="12"/>
  </g>
  <circle cx="60" cy="72" r="27" fill="#a5d95e"/>
  <g fill="#2f4a1d">
    <ellipse cx="50" cy="72" rx="3.4" ry="5"/><ellipse cx="70" cy="72" rx="3.4" ry="5"/>
    <path d="M52 81 q8 9 16 0 q-2 8 -8 8 q-6 0 -8 -8 Z"/>
  </g>
</svg>
